# xmcd
#
# Track frame offsets: 
#        150
#        9552
#        23415
#        33577
#        47770
#        60530
#        71225
#        85625
#        97530
#        110575
#        124815
#        134337
#        144437
#        156465
#        166750
#        177257
#        188567
#        201027
#        212275
#        225710
#        235925
#        250667
#        265017
#        275342
#
# Disc length: 3817 seconds
#
# Revision: 0
# Processed by: cddbd v1.4PL0 Copyright (c) Steve Scherf et al.
# Submitted via: ExactAudioCopy v0.90b3
#
DISCID=390ee718
DTITLE=Charley Pride - Reader's Digest (Charley Pride's Country) - Dis
DTITLE=c 1
DYEAR=1900
DGENRE=Country
TTITLE0=Kiss An Angel Good Mornin'
TTITLE1=All I Have To Offer You (Is Me)
TTITLE2=Is Anyone Goin' To San Antone
TTITLE3=I Can't Believe That You've Stopped Lovin' Me
TTITLE4=I'd Rather Love You
TTITLE5=I'm Just Me
TTITLE6=Amazing Love
TTITLE7=It's Gonna Take A Little Bit Longer
TTITLE8=She's To Good To Be True
TTITLE9=A Shoulder To Cry On
TTITLE10=Don't Fight The Feelings Of Love
TTITLE11=Then Who Am I
TTITLE12=My Eyes Can Only See As Far As You
TTITLE13=Just Between You And Me
TTITLE14=Does My Ring Hurt Your Finger
TTITLE15=Help Me Make It Through The Night
TTITLE16=You'll Still Be The One
TTITLE17=Before I Met You
TTITLE18=Let My Love In
TTITLE19=You're The Woman Behind Everything
TTITLE20=The Hard Times Will Be The Best Times
TTITLE21=(I'm So) Afraid Of Losing You Again
TTITLE22=A Good Woman's Love
TTITLE23=My Love Is Deep, My Love Is Wide
EXTD=
EXTT0=
EXTT1=
EXTT2=
EXTT3=
EXTT4=
EXTT5=
EXTT6=
EXTT7=
EXTT8=
EXTT9=
EXTT10=
EXTT11=
EXTT12=
EXTT13=
EXTT14=
EXTT15=
EXTT16=
EXTT17=
EXTT18=
EXTT19=
EXTT20=
EXTT21=
EXTT22=
EXTT23=
PLAYORDER=
